<svg width="0" height="0" class="hidden">
  <symbol fill="none" xmlns="http://www.w3.org/2000/svg" viewBox="0 0 41 49" id="hand_4">
    <path d="M40.442 33.9723C40.442 53.0722 6.06215 53.7998 6.06215 33.0628L1.15074 13.0533C-0.304489 6.8686 8.4269 4.68575 9.88214 10.8705L12.065 19.2381L10.4278 8.14193C9.70023 1.59338 18.6135 0.320054 19.523 6.8686L20.7964 17.419V5.77717C20.7964 -1.31708 29.8916 -1.31708 29.8916 5.77717V18.6924L31.5287 7.41431C32.4382 1.22957 41.3515 2.5029 40.442 8.68764L38.2592 23.6038C41.3515 25.2409 40.442 31.0618 40.442 33.9723ZM7.88119 32.5171C8.4269 52.1627 38.623 50.1618 38.623 33.9723C38.623 22.8762 39.8963 25.059 26.0716 25.059C26.0716 31.6075 26.2535 29.7885 33.3478 30.5161C34.803 30.5161 34.2573 32.699 34.2573 33.4266C34.2573 35.6094 28.8002 33.0628 28.6182 39.7932C28.4363 40.8847 26.7992 40.8847 26.7992 39.6113C26.9811 35.9732 28.8002 33.4266 32.4382 32.699V32.3352C23.5249 32.3352 24.2526 31.0618 24.2526 23.24C28.4363 23.24 32.4382 23.0581 36.4401 23.24L38.623 8.50573C39.3506 4.68575 33.8935 3.77623 33.3478 7.77812L31.1649 22.3304C30.0735 22.3304 29.164 22.3304 28.0725 22.3304V5.77717C28.0725 1.22957 22.6154 1.22957 22.6154 5.77717V22.1485C21.7059 22.1485 20.6145 22.1485 19.705 22.3304L17.704 7.23241C17.1583 3.04861 11.7012 3.77623 12.2469 7.96002L14.4297 23.4219C13.3383 23.7857 12.4288 23.9676 11.3374 24.1495L8.0631 11.2343C7.15358 7.59621 1.87836 8.86954 2.96978 12.6895L7.88119 32.5171Z" fill="#EE58B6"></path>
  </symbol>
  <symbol fill="none" xmlns="http://www.w3.org/2000/svg" viewBox="0 0 51 49" id="hand_5">
    <path d="M5.85425 33.0635L0.942739 13.0536C-0.512525 6.86874 8.21906 4.68584 9.67432 10.8707L11.8572 19.2385L10.22 8.14209C9.49241 1.59341 18.4059 0.320051 19.3154 6.86874L20.5888 17.4194V5.77729C20.5888 -1.31712 29.6842 -1.31712 29.6842 5.77729V18.6928L31.3214 7.41446C32.2309 1.22959 41.1444 2.50295 40.2349 8.68782C39.3253 15.7822 38.2339 22.6947 37.1424 29.6072C42.7816 24.15 45.5102 23.7862 50.2398 29.7891C47.3293 32.5178 42.4178 36.1559 39.5072 38.7026C34.5957 52.5276 5.85425 52.5276 5.85425 33.0635ZM38.4158 8.50591C39.1434 4.68584 33.6862 3.7763 33.1405 7.77828L30.9576 22.3309C29.8661 22.3309 28.9566 22.3309 27.8651 22.3309V5.77729C27.8651 1.22959 22.4079 1.22959 22.4079 5.77729V22.149C21.4983 22.149 20.4069 22.149 19.4974 22.3309L17.4964 7.23255C16.9506 3.04867 11.4934 3.7763 12.0391 7.96019L14.222 23.4224C13.1306 23.7862 12.221 23.9681 11.1296 24.15L7.85524 11.2345C6.9457 7.59637 1.67037 8.86973 2.76182 12.6898L7.67333 32.5178C8.21906 51.8 34.7776 49.6171 38.052 37.0655C38.052 36.8836 46.9655 30.3349 47.6931 29.6072C43.1454 23.6043 39.3253 30.6987 34.4138 34.3368C31.1395 33.7911 28.5928 36.1559 28.4108 39.6122C28.4108 40.8855 26.5918 40.8855 26.5918 39.6122C26.7737 34.7007 29.8661 32.6997 33.8681 32.3359C34.05 32.3359 34.4138 31.7901 35.1414 31.2444C36.2329 23.7862 37.3243 16.146 38.4158 8.50591Z" fill="#EE58B6"></path>
  </symbol>
  <symbol fill="none" xmlns="http://www.w3.org/2000/svg" viewBox="0 0 36 49" id="hand_6">
    <path d="M35.7348 33.9723C35.7348 53.0722 1.53685 53.7998 1.53685 33.0628C0.627333 29.4247 -0.464091 27.2418 1.90066 24.6952C3.5378 23.0581 4.99303 21.9666 7.72159 22.3304C7.17588 17.7828 6.44826 12.8714 5.90255 8.14193C4.99303 1.59338 13.9063 0.320054 14.8158 6.8686L16.2711 17.419V5.77717C16.2711 -1.31708 25.1844 -1.31708 25.1844 5.77717V18.6924L27.0034 7.41431C27.9129 1.22957 36.8262 2.5029 35.9167 8.68764L33.552 23.6038C36.8262 25.2409 35.7348 31.0618 35.7348 33.9723ZM7.17588 23.9676C5.53874 23.6038 1.90066 26.878 2.26447 28.3333L15.1797 30.5161C19.1815 31.2437 20.0911 25.9685 16.0892 25.2409L7.17588 23.9676ZM2.81018 30.3342L3.35589 32.5171C3.9016 52.1627 33.9158 50.1618 33.9158 33.9723C33.9158 22.8762 35.1891 25.059 21.5463 25.059C21.5463 31.6075 21.7282 29.7885 28.8225 30.5161C30.0958 30.5161 29.732 32.699 29.732 33.4266C29.732 35.6094 24.2749 33.0628 23.911 39.7932C23.911 40.8847 22.092 40.8847 22.092 39.6113C22.2739 35.9732 24.093 33.4266 27.9129 32.699V32.3352C22.6377 32.3352 20.6368 31.7894 20.0911 29.7885C19.3634 31.6075 17.5444 32.8809 14.9977 32.3352L2.81018 30.3342ZM19.7273 25.4228C19.7273 24.6952 19.7273 23.9676 19.7273 23.24C23.7291 23.24 27.9129 23.0581 31.9148 23.24L34.0977 8.50573C34.6434 4.68575 29.3682 3.77623 28.8225 7.77812L26.6396 22.3304C25.5482 22.3304 24.4568 22.3304 23.3653 22.3304V5.77717C23.3653 1.22957 18.0901 1.22957 18.0901 5.77717V22.1485C16.9987 22.1485 16.0892 22.1485 14.9977 22.3304L12.9968 7.23241C12.4511 3.04861 7.17588 3.77623 7.72159 7.96002C8.2673 12.6895 8.99492 17.6009 9.72253 22.5123C14.9978 23.24 19.1815 23.0581 19.7273 25.4228Z" fill="#EE58B6"></path>
  </symbol>
  <symbol fill="none" xmlns="http://www.w3.org/2000/svg" viewBox="0 0 39 49" id="hand_1">
    <path d="M34.1318 5.74479V21.6304C35.3085 21.8265 36.2891 22.2187 36.8775 22.8071C38.6425 24.9644 38.0542 30.848 38.0542 33.0053C38.0542 53.7938 0.987793 53.7938 0.987793 33.0053C0.987793 28.2984 0.987793 23.3955 0.987793 18.4925C0.987793 14.9624 7.26358 14.1779 9.81312 16.5313C11.5782 14.7662 15.5006 14.7662 17.4617 16.3352C19.0307 14.7662 22.1686 14.5701 24.3259 15.5507V5.74479C24.3259 -1.11936 34.1318 -1.11936 34.1318 5.74479ZM32.1706 21.2382V5.74479C32.1706 1.6263 26.2871 1.6263 26.2871 5.74479V21.2382C28.2483 21.2382 30.4056 21.2382 32.1706 21.2382ZM24.3259 21.2382V18.2964C24.3259 16.5313 18.6385 16.5313 18.4423 18.2964C18.6385 23.7877 18.6385 27.7101 18.6385 31.6324C18.8346 33.2014 24.3259 33.7897 24.3259 31.0441C19.619 29.8674 20.5996 25.7489 20.5996 21.4343C21.3841 21.4343 22.7569 21.4343 24.3259 21.2382ZM26.2871 31.2402C26.2871 35.1626 20.2074 35.7509 17.6579 33.7897C15.8928 35.5548 11.5782 35.5548 9.81312 33.7897C8.24418 35.1626 5.10628 35.5548 3.1451 34.5742C4.71404 51.2443 36.093 50.6559 36.093 33.0053C36.093 31.6324 36.4852 25.3566 35.3085 24.1799C34.1318 22.8071 24.3259 23.3955 22.5608 23.3955C22.5608 25.945 21.9725 29.0829 25.3065 29.279H30.4056C32.5629 29.279 32.5629 33.5936 30.6017 33.5936C27.0716 33.7897 25.3065 35.7509 25.1104 39.2811C25.1104 40.4578 23.1492 40.4578 23.3453 39.2811C23.3453 35.1626 25.5026 32.4169 29.425 31.6324V31.2402H26.2871ZM2.94898 32.0247C3.34121 33.5936 8.83253 33.5936 8.83253 31.8285V18.4925C8.83253 16.9235 2.94898 16.7274 2.94898 18.4925C2.94898 23.0032 2.94898 27.5139 2.94898 32.0247ZM16.6773 31.8285C16.4812 28.8868 16.4812 22.611 16.4812 18.4925C16.285 16.7274 10.7937 16.7274 10.7937 18.4925V31.8285C10.7937 33.5936 16.4812 33.5936 16.6773 31.8285Z" fill="#EE58B6"></path>
  </symbol>
  <symbol fill="none" xmlns="http://www.w3.org/2000/svg" viewBox="0 0 36 49" id="hand_2">
    <path d="M35.7483 9.25712L33.3557 23.6126C36.4845 25.269 35.5642 31.1584 35.5642 34.1032C35.5642 53.4279 0.779785 53.4279 0.779785 34.1032C0.779785 29.502 0.779785 24.9009 0.779785 20.4838C0.779785 16.803 6.85326 16.4349 9.0618 18.4594C10.5342 16.987 13.6629 16.987 15.5034 17.9072L14.7672 5.02409C14.3991 -0.497253 23.6013 -1.04939 23.9694 4.47195L24.7056 19.9317L26.7301 7.78476C27.6503 1.89533 36.6685 2.63151 35.7483 9.25712ZM21.0247 24.9009C21.0247 32.0787 22.4971 29.8701 28.3865 30.4223C28.9386 30.4223 29.3067 30.7903 29.3067 31.3425V33.551C29.3067 35.2074 23.7854 33.367 23.4173 39.8085C23.4173 41.0969 21.5768 40.9128 21.7609 39.8085C21.7609 35.9436 23.7854 33.367 27.4663 32.6308V32.2627C19.0002 32.6308 19.1843 31.3425 19.1843 23.0605C20.4726 23.0605 21.7609 23.0605 23.0492 23.0605C23.0492 17.171 22.313 10.5454 22.129 4.656C21.9449 1.52724 16.4236 1.89533 16.6076 5.02409L17.3438 22.6924V32.8148C17.3438 36.3117 11.0863 36.6798 9.0618 34.6553C7.58944 36.1276 4.46068 36.1276 2.80428 35.3915C4.27664 51.0353 33.7238 50.4831 33.7238 34.1032C33.9078 23.2445 33.7238 24.9009 21.0247 24.9009ZM2.62023 32.9989C2.98832 34.4712 8.14157 34.4712 8.14157 32.8148V20.4838C8.14157 18.6434 2.62023 18.6434 2.62023 20.4838C2.62023 24.5328 2.62023 28.7659 2.62023 32.9989ZM26.178 23.0605C28.0184 23.0605 29.8589 23.0605 31.6993 23.0605L33.9078 8.88903C34.46 4.84004 29.1227 4.47195 28.3865 7.9688L26.178 23.0605ZM15.5034 32.8148V20.4838C15.5034 18.6434 9.98202 18.6434 9.98202 20.4838V32.8148C9.98202 34.4712 15.5034 34.4712 15.5034 32.8148Z" fill="#EE58B6"></path>
  </symbol>
  <symbol fill="none" xmlns="http://www.w3.org/2000/svg" viewBox="0 0 46 49" id="hand_3">
    <path d="M29.2106 34.4987C26.0793 33.7619 23.3164 36.3406 23.1322 39.8403C23.1322 41.1297 21.2902 40.9455 21.4744 39.8403C21.6586 34.6829 24.7899 32.841 28.8422 32.4726C28.8422 32.4726 29.3948 31.92 30.1315 31.3674L33.6312 8.89575C34.1838 4.84348 28.8422 4.4751 28.1054 7.97478L26.0793 21.6051C27.0002 21.7893 27.737 22.1577 28.658 22.3419C29.3948 22.7103 28.658 24.368 27.9212 24.1838C25.3425 23.0787 22.5796 22.7103 19.8167 22.7103C18.8957 22.8945 18.7115 20.8684 19.6325 20.8684C20.7377 20.8684 21.6586 20.8684 22.7638 21.0526C22.7638 15.7109 22.027 9.81672 21.8428 4.65929C21.6586 1.52799 16.1328 1.89638 16.317 5.02768L17.0538 20.5V32.841C17.0538 36.3406 10.7912 36.709 8.76505 34.6829C7.2915 36.1565 4.1602 36.1565 2.50245 35.4197C3.976 49.971 29.2106 50.5236 32.8945 37.4458C33.0787 37.2616 42.1042 30.6306 42.8409 29.8939C38.2361 23.6313 34.368 30.999 29.2106 34.4987ZM32.1577 29.7097C38.0519 24.368 40.8148 23.9997 45.4196 30.0781C42.2883 32.841 37.3151 36.3406 34.368 38.9194C29.0264 53.2865 0.476318 51.6287 0.476318 34.1303C0.476318 29.5255 0.476318 24.9206 0.476318 20.5C0.476318 16.8161 6.55472 16.4477 8.76505 18.4738C10.2386 17.0003 13.3699 17.0003 15.2118 17.9213L14.4751 5.02768C14.1067 -0.49814 23.3164 -1.05072 23.6848 4.4751L24.4215 19.9474L26.4477 7.79059C27.3686 1.89638 36.3941 2.63316 35.4732 9.26414L32.1577 29.7097ZM2.31826 33.0252C2.68665 34.4987 7.84408 34.4987 7.84408 32.841V20.5C7.84408 18.658 2.31826 18.658 2.31826 20.5C2.31826 24.5522 2.31826 28.7887 2.31826 33.0252ZM15.2118 32.841V20.5C15.2118 18.658 9.68602 18.658 9.68602 20.5V32.841C9.68602 34.4987 15.2118 34.4987 15.2118 32.841Z" fill="#EE58B6"></path>
  </symbol>
</svg>