<svg width="259" height="290" viewBox="0 0 259 290" fill="none" xmlns="http://www.w3.org/2000/svg">
<rect x="67" y="263" width="124" height="22" fill="#20827C"/>
<path d="M37 243C41 212.6 57.3334 186 65 176.5C76.6667 185.667 106.3 203.3 131.5 200.5C142.167 200.667 169.7 196.1 194.5 176.5C194.224 178.615 194.372 181.15 194.841 184C208.036 199.782 220.024 231.37 216.5 249.5C226.5 266.3 162.667 270.5 129.5 270.5C52.3 266.9 35.6667 250.667 37 243Z" fill="#FF6319" stroke="#FF6018"/>
<path d="M61 289C58.6 288.6 58 287.167 58 286.5C69.5 284.5 77.3185 283.744 80 283.5C85.5 283 124.5 283 125.5 282.5C126.3 282.1 142.167 282.667 150 283L199.5 286C201 286.167 203.7 286.8 202.5 288C201 289.5 191.5 289 179 289C169 289 140.167 288.333 127 288C119.5 288 92.5 289 87.5 289C82.5 289 64 289.5 61 289Z" fill="#49454B" stroke="#49464B"/>
<path d="M141 207C136.2 207 132.667 206.167 131.5 205.5C129.9 207.5 123.833 207.167 122 207C86.4 201.4 70.1667 184.667 65.5 177C90.5 197.46 119.5 201.5 131.5 200.5C170.7 197.3 187 180.5 195 175.5V180.5C172.5 204 147 207 141 207Z" fill="#00AD51" stroke="#576E38"/>
<circle cx="205.5" cy="253.5" r="15.5" fill="#4CC43D"/>
<circle cx="49.5" cy="248.5" r="15.5" fill="#4FC43E"/>
<circle cx="194" cy="249" r="6.5" fill="#4EC43D" stroke="#518F46"/>
<circle cx="61" cy="244" r="6.5" fill="#4DC53D" stroke="#508D46"/>
<path d="M88 218V248H113V218M88 218H113M88 218L101 232L113 218" stroke="#392725"/>
<path d="M147 217V247H172V217M147 217H172M147 217L160 231L172 217" stroke="#392725"/>
<line x1="131.5" y1="206" x2="131.5" y2="271" stroke="black" stroke-width="3"/>
<path d="M69 218.5C67.8333 221.5 65.1 229.6 63.5 238" stroke="black"/>
<path d="M188 219C189.167 223.167 191.4 233.8 191 243" stroke="black"/>
<ellipse cx="129" cy="118.5" rx="94" ry="82.5" fill="#FFECC3"/>
<path d="M146.5 178L134.5 187L121 179L105 166V163.5H162L160 166L155.5 171.5L152 175.5L146.5 178Z" fill="#312C30"/>
<path d="M113 172L109.5 167V165H120V167V170.5L118 172H113Z" fill="#FEFEFD"/>
<path d="M121 171.5V166.5L123 164H133L134 165V170L132 173H125L121 171.5Z" fill="#FEFEFD"/>
<path d="M135 172V164H148L147 167L146 169L145 171V173H136L135 172Z" fill="#FEFEFD"/>
<path d="M149 167L150 164H159L160 165L158 167L156 169L153.5 171L151 172L149 173L147 172V171L148 169L149 167Z" fill="#FEFEFD"/>
<ellipse cx="101.942" cy="111.694" rx="26.7149" ry="31.5541" transform="rotate(30.1218 101.942 111.694)" fill="#FDFDFD"/>
<ellipse rx="26.7149" ry="31.5541" transform="matrix(-0.86496 0.50184 0.50184 0.86496 157.942 111.7)" fill="#FDFDFD"/>
<line x1="130.5" y1="100" x2="130.5" y2="115" stroke="#BAB6B4"/>
<circle cx="112.5" cy="112.5" r="3.5" fill="#342F33"/>
<circle cx="143.5" cy="112.5" r="3.5" fill="#332F32"/>
<path d="M37 17C37 7.61116 44.6112 0 54 0H206C215.389 0 223 7.61116 223 17V66.3439C223 77.3669 212.671 85.4751 201.963 82.8577L136.91 66.9559C134.339 66.3273 131.656 66.3079 129.076 66.8992L57.7974 83.2339C47.1516 85.6736 37 77.5853 37 66.6635V17Z" fill="#50C63E"/>
<path d="M49 34V87.5C58 83.6667 87.4709 78 131.5 78C175.5 78 203.333 85 211.5 87.5V34H49Z" fill="#00AD51"/>
<ellipse rx="17.7513" ry="46.4853" transform="matrix(-0.939283 -0.343143 -0.343143 0.939283 32.6246 110.754)" fill="#4FC43E"/>
<ellipse cx="225.625" cy="110.995" rx="17.7513" ry="46.4853" transform="rotate(-20.0685 225.625 110.995)" fill="#4DC43E"/>
<line x1="77.1914" y1="82.7366" x2="102.191" y2="66.7366" stroke="#3F3E41" stroke-width="3"/>
<path d="M182.5 82.5L155.329 69.3416" stroke="#433F44" stroke-width="3"/>
<path d="M211 67C216 66.5 220 69 223 72.5" stroke="#478641"/>
<path d="M49 66.0637C44 65.5637 38.5 67 35.5 70.5" stroke="#478644"/>
</svg>
