<svg width="192" height="298" viewBox="0 0 192 298" fill="none" xmlns="http://www.w3.org/2000/svg">
<rect x="35" y="271" width="131" height="22" fill="#3C72C4"/>
<path d="M67 294.5C51.8 294.5 33.6667 295.167 26.5 295.5C30 292 57.5 288.5 67 288C74.6 287.6 92.1667 290.167 100 291.5C101.333 291 110.4 290 136 290C161.6 290 174.333 294.667 177.5 297H173C158.5 297 162 295.5 138 295.5H102.5C94.5 295.5 86 294.5 67 294.5Z" fill="#363034" stroke="#342F33"/>
<path d="M11.5 250.5C15.5 220.1 28.8333 199.5 36.4999 190C48.1666 199.167 76.3721 211.8 101.572 209C112.239 209.167 134.2 206.6 159 187C158.724 189.115 162.531 190.15 163 193C176.195 208.782 184.524 234.87 181 253C191 269.8 132.739 279 99.5721 279C22.3721 275.4 10.1667 258.167 11.5 250.5Z" fill="#D36F61" stroke="#D16E5F"/>
<circle cx="172.5" cy="257.5" r="15.5" fill="#FF1E3E"/>
<circle cx="161" cy="253" r="6.5" fill="#FF2144" stroke="#CD2741"/>
<circle cx="24.5" cy="252.5" r="15.5" fill="#FF2040"/>
<circle cx="36" cy="248" r="6.5" fill="#FF2043" stroke="#CA2541"/>
<circle cx="90.5" cy="267.5" r="2.5" fill="#383134"/>
<circle cx="91.5" cy="246.5" r="2.5" fill="#383134"/>
<circle cx="92.5" cy="227.5" r="2.5" fill="#373035"/>
<path d="M104.561 214.061C105.146 213.475 105.146 212.525 104.561 211.939C103.975 211.354 103.025 211.354 102.439 211.939L104.561 214.061ZM102.439 211.939C101.508 212.871 100.54 214.066 99.6584 215.829L102.342 217.171C103.06 215.734 103.825 214.796 104.561 214.061L102.439 211.939ZM99.6584 215.829C99.2582 216.63 99.128 217.685 99.08 218.652C99.0292 219.676 99.0639 220.847 99.1272 222.018C99.2587 224.452 99.5 226.796 99.5 228.5H102.5C102.5 226.704 102.241 224.048 102.123 221.857C102.061 220.715 102.033 219.668 102.076 218.801C102.122 217.878 102.242 217.37 102.342 217.171L99.6584 215.829ZM99.5 228.5C99.5 231.247 98.3364 258.07 97.5032 270.903L100.497 271.097C101.33 258.263 102.5 231.353 102.5 228.5H99.5Z" fill="black"/>
<path d="M40.5 226C39.3333 229.833 37.1 238.4 37.5 242" stroke="black"/>
<path d="M155 227C155.833 230.333 157.7 239 158.5 247" stroke="black"/>
<path d="M42.5 197.5C40.9 194.3 40.8333 192.5 41 192C63 211 90.8787 211.5 93 211.5C95 211.5 97.8333 214.667 101 217C101.8 214.2 105 212.167 106.5 211.5C135.5 210.5 152.5 190 156.5 191.5C159.7 192.7 161.167 195.667 160.5 196.5C131.5 228.5 111.5 221.5 107 222C103.4 222.4 100.5 220.5 99.5 219.5C96.3 220.7 92.8333 220.667 91.5 220.5C76.5 221.5 44.5 201.5 42.5 197.5Z" fill="#FF2043" stroke="#FF2040"/>
<ellipse cx="97.5" cy="119.5" rx="93.5" ry="91.5" fill="#FFECC3"/>
<path d="M115.616 188.882L104.055 198.44L90.1913 191.087L73.5944 178.858L73.4762 176.361L130.412 173.665L128.533 176.257L124.298 181.964L120.991 186.125L115.616 188.882Z" fill="#312C30"/>
<path d="M81.8692 184.473L78.1367 179.644L78.0421 177.647L88.5303 177.15L88.6249 179.148L88.7905 182.644L86.8636 184.237L81.8692 184.473Z" fill="#FEFEFD"/>
<path d="M89.8366 183.595L89.6002 178.601L91.4797 176.009L101.468 175.536L102.515 176.488L102.751 181.482L100.895 184.573L93.9031 184.905L89.8366 183.595Z" fill="#FEFEFD"/>
<path d="M103.845 183.433L103.466 175.442L116.452 174.827L115.595 177.871L114.69 179.916L113.786 181.961L113.881 183.959L104.891 184.384L103.845 183.433Z" fill="#FEFEFD"/>
<path d="M117.592 177.776L118.449 174.732L127.439 174.307L128.486 175.258L126.582 177.351L124.679 179.443L122.277 181.559L119.827 182.676L117.876 183.769L115.831 182.865L115.784 181.866L116.688 179.821L117.592 177.776Z" fill="#FEFEFD"/>
<path d="M83 22C35.8 27.2 13 71.8334 7.5 93.5L185 85.5C161 22.7 107 17 83 22Z" fill="#3973C4" stroke="#3D76C6"/>
<ellipse cx="68.9424" cy="128.7" rx="26.7149" ry="31.5541" transform="rotate(30.1218 68.9424 128.7)" fill="#FDFDFD"/>
<ellipse rx="26.7149" ry="31.5541" transform="matrix(-0.86496 0.50184 0.50184 0.86496 124.942 128.706)" fill="#FDFDFD"/>
<line x1="97.5" y1="117.006" x2="97.5" y2="132.006" stroke="#BAB6B4"/>
<circle cx="79.5" cy="129.506" r="3.5" fill="#342F33"/>
<circle cx="110.5" cy="129.506" r="3.5" fill="#332F32"/>
<path d="M98 97.5C66 97.5 21 108.833 2.5 114.5L1.5 95.5C39.5 81.9 81.6667 76.8333 98 76C154.8 77.2 184 84.1667 191.5 87.5V107C158.7 97.8 115.5 96.8333 98 97.5Z" fill="#FF1E3E" stroke="#FF1F40"/>
<line x1="35.9669" y1="107.913" x2="55.9669" y2="88.9125" stroke="black" stroke-width="3"/>
<line x1="152.083" y1="103.187" x2="130.083" y2="86.1869" stroke="black" stroke-width="3"/>
<line x1="78.6833" y1="3.89443" x2="95.8944" y2="38.3167" stroke="#DE2544" stroke-width="4" stroke-linecap="round"/>
<line x1="93.4722" y1="2.52216" x2="81.5222" y2="39.1051" stroke="#DE2544" stroke-width="4" stroke-linecap="round"/>
<line x1="100.136" y1="7.43008" x2="73.992" y2="35.6725" stroke="#DE2544" stroke-width="4" stroke-linecap="round"/>
<line x1="104.903" y1="12.694" x2="70.694" y2="30.325" stroke="#DE2544" stroke-width="4" stroke-linecap="round"/>
<line x1="99.9546" y1="34.353" x2="72.0706" y2="7.82755" stroke="#DE2544" stroke-width="4" stroke-linecap="round"/>
<line x1="86.8684" y1="40.5189" x2="86.0434" y2="2.04241" stroke="#DE2544" stroke-width="4" stroke-linecap="round"/>
<line x1="69.5268" y1="14.7291" x2="106.066" y2="26.8132" stroke="#DE2544" stroke-width="4" stroke-linecap="round"/>
<line x1="67.8416" y1="21.7985" x2="106.261" y2="19.5484" stroke="#DE2544" stroke-width="4" stroke-linecap="round"/>
</svg>
